# xmcd
#
# Track frame offsets:
#	150
#	17270
#	35402
#	57625
#	70772
#	85792
#	97145
#	112762
#	124322
#	141580
#	155057
#	170990
#	187737
#	207050
#	225067
#	242912
#	262107
#	275987
#	292750
#	307850
#	318727
#
# Disc length: 4509 seconds
#
# Revision: 1
# Processed by: cddbd v1.4PL0 Copyright (c) Steve Scherf et al.
# Submitted via: audiograbber 1.80
#
DISCID=2f119b15
DTITLE=Big Hand - 30 Years On The Road
DYEAR=1900
DGENRE=
TTITLE0=Light In The Dark
TTITLE1=Gamblin' On Romance
TTITLE2=New Moon
TTITLE3=Someone To Drive You Crazy
TTITLE4=Some Things Never Change
TTITLE5=His Latest Flame
TTITLE6=When You're In Love
TTITLE7=Red Lips, Blue Eyes And Little White Lies
TTITLE8=Rise And Shine
TTITLE9=You've Got What It Takes
TTITLE10=Song For Sulis
TTITLE11=Rough Norwegian Roads
TTITLE12=Passion And Trust
TTITLE13=Blue Norwegian Moon
TTITLE14=I'm Still Your Fool
TTITLE15=Honky Tonk Night
TTITLE16=Swingin' Doors Again
TTITLE17=One Woman Can Make It Rain
TTITLE18=Prisoners Of The Blues
TTITLE19=On The Road Again
TTITLE20=Will The Circle Be Unbroken
EXTD=
EXTT0=
EXTT1=
EXTT2=
EXTT3=
EXTT4=
EXTT5=
EXTT6=
EXTT7=
EXTT8=
EXTT9=
EXTT10=
EXTT11=
EXTT12=
EXTT13=
EXTT14=
EXTT15=
EXTT16=
EXTT17=
EXTT18=
EXTT19=
EXTT20=
PLAYORDER=
